<mxfile host="app.diagrams.net" modified="2022-05-03T05:48:05.499Z" agent="5.0 (Windows NT 10.0; Win64; x64) AppleWebKit/537.36 (KHTML, like Gecko) Chrome/100.0.4896.88 Safari/537.36" etag="_zVpqh9XbuhCcpNPg85V" version="16.5.5" type="github">
  <diagram id="wdg7d6GIiMwj1WEckeHe" name="Page-1">
    <mxGraphModel dx="1135" dy="1026" grid="1" gridSize="10" guides="1" tooltips="1" connect="1" arrows="1" fold="1" page="1" pageScale="1" pageWidth="827" pageHeight="1169" math="0" shadow="0">
      <root>
        <mxCell id="0" />
        <mxCell id="1" parent="0" />
        <mxCell id="NMvF5vDh91TmVNXup4tc-2" value="" style="rounded=1;whiteSpace=wrap;html=1;" parent="1" vertex="1">
          <mxGeometry x="40" y="80" width="750" height="480" as="geometry" />
        </mxCell>
        <mxCell id="KqjhCIvY7JiIjr15peSO-1" value="&lt;h1&gt;단조 공정&lt;/h1&gt;" style="rounded=0;whiteSpace=wrap;html=1;fillColor=#f5f5f5;fontColor=#333333;strokeColor=#666666;" parent="1" vertex="1">
          <mxGeometry x="341" y="50" width="146" height="60" as="geometry" />
        </mxCell>
        <mxCell id="KqjhCIvY7JiIjr15peSO-2" value="&lt;h2&gt;철강재&lt;/h2&gt;" style="ellipse;whiteSpace=wrap;html=1;" parent="1" vertex="1">
          <mxGeometry x="100" y="210" width="90" height="60" as="geometry" />
        </mxCell>
        <mxCell id="KqjhCIvY7JiIjr15peSO-3" value="&lt;h2&gt;철강재&lt;/h2&gt;" style="ellipse;whiteSpace=wrap;html=1;" parent="1" vertex="1">
          <mxGeometry x="100" y="290" width="90" height="60" as="geometry" />
        </mxCell>
        <mxCell id="KqjhCIvY7JiIjr15peSO-4" value="&lt;h2&gt;철강재&lt;/h2&gt;" style="ellipse;whiteSpace=wrap;html=1;" parent="1" vertex="1">
          <mxGeometry x="100" y="370" width="90" height="60" as="geometry" />
        </mxCell>
        <mxCell id="KqjhCIvY7JiIjr15peSO-5" value="&lt;h2&gt;가열로&lt;/h2&gt;" style="rounded=0;whiteSpace=wrap;html=1;" parent="1" vertex="1">
          <mxGeometry x="280" y="210" width="90" height="40" as="geometry" />
        </mxCell>
        <mxCell id="KqjhCIvY7JiIjr15peSO-7" value="&lt;h2&gt;프레스기&lt;/h2&gt;" style="rounded=0;whiteSpace=wrap;html=1;" parent="1" vertex="1">
          <mxGeometry x="460" y="270" width="90" height="40" as="geometry" />
        </mxCell>
        <mxCell id="KqjhCIvY7JiIjr15peSO-8" value="&lt;h2&gt;가열로&lt;/h2&gt;" style="rounded=0;whiteSpace=wrap;html=1;" parent="1" vertex="1">
          <mxGeometry x="280" y="270" width="90" height="40" as="geometry" />
        </mxCell>
        <mxCell id="KqjhCIvY7JiIjr15peSO-13" value="&lt;h2&gt;프레스기&lt;/h2&gt;" style="rounded=0;whiteSpace=wrap;html=1;" parent="1" vertex="1">
          <mxGeometry x="460" y="330" width="90" height="40" as="geometry" />
        </mxCell>
        <mxCell id="KqjhCIvY7JiIjr15peSO-14" value="&lt;h2&gt;완성 &lt;br&gt;제품&lt;/h2&gt;" style="ellipse;whiteSpace=wrap;html=1;" parent="1" vertex="1">
          <mxGeometry x="640" y="210" width="90" height="60" as="geometry" />
        </mxCell>
        <mxCell id="KqjhCIvY7JiIjr15peSO-16" value="&lt;h2&gt;완성 &lt;br&gt;제품&lt;/h2&gt;" style="ellipse;whiteSpace=wrap;html=1;" parent="1" vertex="1">
          <mxGeometry x="640" y="290" width="90" height="60" as="geometry" />
        </mxCell>
        <mxCell id="KqjhCIvY7JiIjr15peSO-17" value="&lt;h2&gt;완성 &lt;br&gt;제품&lt;/h2&gt;" style="ellipse;whiteSpace=wrap;html=1;" parent="1" vertex="1">
          <mxGeometry x="640" y="370" width="90" height="60" as="geometry" />
        </mxCell>
        <mxCell id="KqjhCIvY7JiIjr15peSO-23" value="&lt;h2&gt;가열로&lt;/h2&gt;" style="rounded=0;whiteSpace=wrap;html=1;" parent="1" vertex="1">
          <mxGeometry x="280" y="330" width="90" height="40" as="geometry" />
        </mxCell>
        <mxCell id="KqjhCIvY7JiIjr15peSO-24" value="&lt;h2&gt;가열로&lt;/h2&gt;" style="rounded=0;whiteSpace=wrap;html=1;" parent="1" vertex="1">
          <mxGeometry x="280" y="390" width="90" height="40" as="geometry" />
        </mxCell>
        <mxCell id="KqjhCIvY7JiIjr15peSO-31" value="" style="endArrow=none;dashed=1;html=1;dashPattern=1 3;strokeWidth=2;rounded=0;" parent="1" edge="1">
          <mxGeometry width="50" height="50" relative="1" as="geometry">
            <mxPoint x="325" y="475" as="sourcePoint" />
            <mxPoint x="324.5" y="455" as="targetPoint" />
            <Array as="points" />
          </mxGeometry>
        </mxCell>
        <mxCell id="KqjhCIvY7JiIjr15peSO-32" value="" style="endArrow=none;dashed=1;html=1;dashPattern=1 3;strokeWidth=2;rounded=0;" parent="1" edge="1">
          <mxGeometry width="50" height="50" relative="1" as="geometry">
            <mxPoint x="505" y="410" as="sourcePoint" />
            <mxPoint x="504.5" y="390" as="targetPoint" />
            <Array as="points" />
          </mxGeometry>
        </mxCell>
        <mxCell id="KqjhCIvY7JiIjr15peSO-33" value="" style="endArrow=none;dashed=1;html=1;dashPattern=1 3;strokeWidth=2;rounded=0;" parent="1" edge="1">
          <mxGeometry width="50" height="50" relative="1" as="geometry">
            <mxPoint x="685" y="470" as="sourcePoint" />
            <mxPoint x="684.5" y="450" as="targetPoint" />
            <Array as="points" />
          </mxGeometry>
        </mxCell>
        <mxCell id="KqjhCIvY7JiIjr15peSO-34" value="" style="endArrow=none;dashed=1;html=1;dashPattern=1 3;strokeWidth=2;rounded=0;" parent="1" edge="1">
          <mxGeometry width="50" height="50" relative="1" as="geometry">
            <mxPoint x="145" y="470" as="sourcePoint" />
            <mxPoint x="144.5" y="450" as="targetPoint" />
            <Array as="points" />
          </mxGeometry>
        </mxCell>
        <mxCell id="jfRBR6TDJZYDt-3O3zp0-3" value="" style="shape=singleArrow;whiteSpace=wrap;html=1;arrowWidth=0.5;arrowSize=0.5666666666666667;fillColor=#f5f5f5;strokeColor=#666666;fontColor=#333333;" vertex="1" parent="1">
          <mxGeometry x="220" y="290" width="30" height="60" as="geometry" />
        </mxCell>
        <mxCell id="jfRBR6TDJZYDt-3O3zp0-4" value="" style="shape=singleArrow;whiteSpace=wrap;html=1;arrowWidth=0.5;arrowSize=0.5666666666666667;fillColor=#f5f5f5;strokeColor=#666666;fontColor=#333333;" vertex="1" parent="1">
          <mxGeometry x="580" y="290" width="30" height="60" as="geometry" />
        </mxCell>
        <mxCell id="jfRBR6TDJZYDt-3O3zp0-5" value="" style="shape=doubleArrow;whiteSpace=wrap;html=1;arrowWidth=0.43333333333333335;arrowSize=0.26666666666666666;fillColor=#f5f5f5;strokeColor=#666666;fontColor=#333333;" vertex="1" parent="1">
          <mxGeometry x="400" y="290" width="30" height="60" as="geometry" />
        </mxCell>
      </root>
    </mxGraphModel>
  </diagram>
</mxfile>
